<?xml version="1.0" encoding="UTF-8" standalone="no"?>
<svg
   xmlns:dc="http://purl.org/dc/elements/1.1/"
   xmlns:cc="http://creativecommons.org/ns#"
   xmlns:rdf="http://www.w3.org/1999/02/22-rdf-syntax-ns#"
   xmlns:svg="http://www.w3.org/2000/svg"
   xmlns="http://www.w3.org/2000/svg"
   xmlns:sodipodi="http://sodipodi.sourceforge.net/DTD/sodipodi-0.dtd"
   xmlns:inkscape="http://www.inkscape.org/namespaces/inkscape"
   xml:space="preserve"
   width="4.25in"
   height="8.0625in"
   version="1.1"
   style="shape-rendering:geometricPrecision; text-rendering:geometricPrecision; image-rendering:optimizeQuality; fill-rule:evenodd; clip-rule:evenodd"
   viewBox="0 0 4250 8062.5"
   id="svg970"
   sodipodi:docname="Do_Not_Disturb.svg"
   inkscape:version="1.0.2-2 (e86c870879, 2021-01-15)"><metadata
   id="metadata974"><rdf:RDF><cc:Work
       rdf:about=""><dc:format>image/svg+xml</dc:format><dc:type
         rdf:resource="http://purl.org/dc/dcmitype/StillImage" /><dc:title></dc:title></cc:Work></rdf:RDF></metadata><sodipodi:namedview
   pagecolor="#ffffff"
   bordercolor="#666666"
   borderopacity="1"
   objecttolerance="10"
   gridtolerance="10"
   guidetolerance="10"
   inkscape:pageopacity="0"
   inkscape:pageshadow="2"
   inkscape:window-width="1920"
   inkscape:window-height="1001"
   id="namedview972"
   showgrid="false"
   inkscape:document-units="in"
   inkscape:zoom="1.0348837"
   inkscape:cx="204"
   inkscape:cy="387"
   inkscape:window-x="-9"
   inkscape:window-y="-9"
   inkscape:window-maximized="1"
   inkscape:current-layer="svg970" />
 <defs
   id="defs925">
  <style
   type="text/css"
   id="style923">
   <![CDATA[
    .str0 {stroke:red;stroke-width:3;stroke-miterlimit:2.61313}
    .fil0 {fill:none}
    .fil1 {fill:black}
   ]]>
  </style>
 </defs>
 <g
   id="CUT"
   style="stroke:#ff0000;stroke-opacity:1;stroke-width:3.47222219;stroke-miterlimit:4;stroke-dasharray:none">
  <metadata
   id="CorelCorpID_0Corel-Layer" />
  <path
   class="fil0 str0"
   d="M4218.74 7531.22l0 -5562.48c0,-228.83 -155.35,-428.46 -377.18,-484.68 -93.54,-23.7 -165.08,-99.13 -183.83,-193.78 -144.88,-731.74 -786.8,-1259.01 -1532.74,-1259.01 -745.94,0 -1387.85,527.28 -1532.74,1259.01 -18.74,94.66 -90.29,170.08 -183.83,193.78 -221.83,56.21 -377.18,255.84 -377.18,484.68l0 5562.48c0,276.14 223.86,500 500,500l3187.49 0c276.14,0 500,-223.86 500,-500zm-2093.74 -3499.98c-679.5,0 -1261.81,-485.87 -1383.51,-1154.39 -121.7,-668.52 252.03,-1328.43 887.94,-1567.88 58.05,-21.86 105.89,-64.51 134.25,-119.68 69.6,-135.41 209.07,-220.54 361.31,-220.54 152.25,0 291.72,85.13 361.31,220.54 28.35,55.17 76.2,97.82 134.25,119.68 635.91,239.46 1009.64,899.37 887.94,1567.88 -121.7,668.52 -704,1154.39 -1383.51,1154.39z"
   id="path928"
   style="stroke:#ff0000;stroke-opacity:1;stroke-width:3.47222219;stroke-miterlimit:4;stroke-dasharray:none" />
 </g>
 <g
   id="ENGRAVE"
   style="stroke-width:0;stroke-miterlimit:4;stroke-dasharray:none;fill:#000000;fill-opacity:1">
  <metadata
   id="CorelCorpID_1Corel-Layer" />
  <g
   id="_2164272919824"
   style="stroke-width:0;stroke-miterlimit:4;stroke-dasharray:none;fill:#000000;fill-opacity:1">
   <g
   id="g934"
   style="stroke-width:0;stroke-miterlimit:4;stroke-dasharray:none;fill:#000000;fill-opacity:1">
    <path
   class="fil1"
   d="M1873.71 5318.57l19.53 -7.23 18 -8.46 16.3 -9.84 15.23 -11.38 14.76 -13.22 13.99 -15.38 13.38 -17.07c14.15,-20.14 25.58,-42.07 33.99,-65.2 8.6,-22.76 14.99,-46.3 19.07,-70.28 1.94,-10.48 3.33,-21.06 4.15,-31.68 2.31,-24.02 2.98,-48.17 2,-72.28l-1.08 -20.15c-1.09,-12.92 -2.63,-25.79 -4.61,-38.6 -2.11,-12.14 -4.67,-24.19 -7.69,-36.14 -4.59,-17 -10.39,-33.66 -17.38,-49.83l-7.38 -15.38c-5.13,-9.76 -10.83,-19.21 -17.07,-28.3l-9.69 -13.07 -10.46 -12.3 -11.22 -11.69c-7,-6.58 -14.34,-12.79 -21.99,-18.61 -13.57,-10.24 -28.4,-18.66 -44.14,-25.07l-12.15 -4.77c-8.61,-2.85 -17.33,-5.37 -26.15,-7.54 -15.57,-3.29 -31.34,-5.5 -47.21,-6.61 -21.54,-1.61 -43.14,-2.38 -64.74,-2.31l-216.69 0 0 629.15 227 0 27.68 -0.77 26.15 -2 24.45 -3.23 22.76 -4.76 21.22 -6 -0.01 0 0 0zm-266.06 -57.52l0 -480.59 132.11 0c16.68,-0.07 33.35,0.5 49.98,1.69 9,0.87 17.97,1.94 26.91,3.23 10.52,1.69 20.86,4.31 30.91,7.84l11.38 5.07 10.92 6.15 10.46 7.23 10.15 8.3c6.67,6.27 12.93,12.94 18.76,19.99 6.18,7.74 11.88,15.86 17.07,24.3l7.54 14 6.61 15.38 5.54 16.76 4.61 18.3 3.54 19.69 2.46 21.07 1.54 22.61 0.61 23.99c0.07,22.01 -1.31,44 -4.15,65.82 -2.94,23.08 -8.57,45.74 -16.76,67.51 -4.26,11.31 -9.41,22.26 -15.38,32.76 -7.33,12.64 -16.22,24.31 -26.45,34.76l-11.38 9.84 -13.22 8.76 -14.92 7.54 -16.92 6.46c-13.72,4.28 -27.84,7.17 -42.14,8.61 -18.43,2.03 -36.97,3 -55.52,2.93l-134.26 0 0 0z"
   id="path932"
   style="stroke-width:0;stroke-miterlimit:4;stroke-dasharray:none;fill:#000000;fill-opacity:1" />
   </g>
   <g
   id="g938"
   style="stroke-width:0;stroke-miterlimit:4;stroke-dasharray:none;fill:#000000;fill-opacity:1">
    <path
   class="fil1"
   d="M2648.35 5259.21l13.07 -14.92 12.15 -16 11.23 -17.22 10.15 -18.3 9.07 -19.07 7.85 -19.84 6.61 -20.45 5.38 -21.22 4.31 -21.69 2.92 -22.3 1.85 -23.07 0.61 -23.53 -0.61 -23.37 -1.69 -22.61 -2.77 -21.99 -4 -21.53 -5.23 -20.76 -6.31 -20.15 -7.54 -19.53 -8.46 -18.91 -9.69 -18.15 -10.77 -17.07 -11.84 -15.99 -12.76 -15.07 -13.84 -14 -14.92 -12.92 -15.99 -12 -16.92 -10.92 -17.69 -9.69 -18.3 -8.46 -18.91 -7.23 -19.38 -5.84 -19.84 -4.61 -20.46 -3.23 -20.91 -1.84 -21.53 -0.77c-10.88,0.15 -21.75,0.61 -32.6,1.39 -10.35,1.07 -20.65,2.45 -30.91,4.15 -9.87,1.94 -19.67,4.25 -29.37,6.92 -9.44,2.89 -18.78,6.12 -27.99,9.69 -8.94,3.78 -17.71,7.94 -26.3,12.46 -8.49,4.76 -16.8,9.84 -24.91,15.23 -20.47,14.28 -39.03,31.13 -55.21,50.13 -9.87,11.7 -18.81,24.14 -26.76,37.22 -10.71,18.04 -19.47,37.17 -26.15,57.06 -9.13,27.02 -15.21,54.98 -18.15,83.35 -2.74,25.54 -3.56,51.24 -2.46,76.9l1.69 20.3c1.64,13.37 3.9,26.67 6.77,39.83l5.07 19.53c3.9,12.92 8.41,25.65 13.54,38.14l8.46 18.76 9.54 17.99 10.61 17.07 11.69 16.15 12.76 15.22 13.69 14.15 14.92 13.07 15.84 12.3 16.92 11.23 17.84 10 18.45 8.76 18.92 7.38 19.53 6 20.15 4.61 20.76 3.38 21.22 2 21.99 0.77 20.3 -0.61 19.99 -1.85 19.69 -3.07 19.22 -4.31 18.92 -5.38 18.61 -6.61 18.15 -8 17.84 -9.07 17.22 -10.3 16.3 -11.38 15.07 -12.61 14.3 -13.69 0 -0.01 0 0zm-319.27 -10l-17.69 -11.23 -16.76 -13.22 -15.69 -15.38 -14.45 -17.07 -12.3 -18.76 -10.61 -19.99 -8.61 -21.69 -6.61 -23.22 -4.77 -24.61 -2.92 -26.15 -0.92 -27.68c-0.08,-16.84 0.64,-33.67 2.15,-50.44 1.38,-15.04 3.64,-29.98 6.77,-44.75 3.68,-17.35 9.03,-34.29 16,-50.6 4.75,-10.94 10.46,-21.44 17.07,-31.37 6.37,-9.25 13.63,-17.85 21.68,-25.69l16.3 -14.15 17.22 -12.46 17.84 -10.3 18.61 -8.61 19.38 -6.61 20.15 -4.77 20.91 -2.77 21.84 -1.08c10.13,0.15 20.24,0.82 30.3,2l14.61 2.46c9.47,2.09 18.81,4.7 27.99,7.84 9.1,3.4 17.99,7.36 26.61,11.84l12.61 7.38 12.15 8.31 11.38 9.07 10.61 10 9.84 10.61 9.23 11.53 8.3 12.3 7.69 13.23c4.83,9.23 9.15,18.73 12.92,28.45 7.79,20.86 13.2,42.52 16.15,64.59l2.15 17.69c1.35,17.34 1.81,34.74 1.38,52.13 -0.74,23.01 -3.52,45.91 -8.3,68.44 -3.72,16.04 -8.81,31.74 -15.22,46.91 -7.69,17.54 -17.67,33.99 -29.68,48.91l-7.38 8.46 -15.69 15.38 -16.76 13.53 -17.69 11.38 -18.91 9.23 -19.84 7.22 -20.92 5.23 -21.84 3.07 -23.07 0.92 -22.61 -0.92 -21.53 -3.07 -20.61 -5.07 -19.69 -7.23 -18.76 -9.23 -0.01 0.01z"
   id="path936"
   style="stroke-width:0;stroke-miterlimit:4;stroke-dasharray:none;fill:#000000;fill-opacity:1" />
   </g>
   <polygon
   class="fil1"
   points="1330.83,6346.04 1330.83,5851.61 1661.32,6346.04 1746.68,6346.04 1746.68,5716.89 1666.86,5716.89 1666.86,6210.86 1336.52,5716.89 1251.02,5716.89 1251.02,6346.04 "
   id="polygon940"
   style="stroke-width:0;stroke-miterlimit:4;stroke-dasharray:none;fill:#000000;fill-opacity:1" />
   <g
   id="g944"
   style="stroke-width:0;stroke-miterlimit:4;stroke-dasharray:none;fill:#000000;fill-opacity:1">
    <path
   class="fil1"
   d="M2403.97 5828.23l-11.69 -15.99 -12.92 -15.07 -13.84 -14 -14.92 -12.92 -15.84 -12 -17.07 -10.92 -17.69 -9.69 -18.3 -8.46 -18.76 -7.23 -19.38 -5.84 -19.99 -4.46 -20.45 -3.23 -20.92 -2 -21.53 -0.61c-21.3,-0.09 -42.56,1.77 -63.52,5.54 -19.59,3.53 -38.77,9.1 -57.21,16.61 -27.21,11.01 -52.41,26.44 -74.59,45.67 -27.11,23.11 -49.56,51.2 -66.13,82.74 -7.42,14.03 -13.7,28.63 -18.76,43.68 -5.43,15.76 -9.69,31.9 -12.76,48.29 -3.54,17.56 -5.85,35.34 -6.92,53.21 -1.55,19.49 -1.8,39.07 -0.77,58.59l1.69 20.45 2.77 19.99 4 19.69 5.07 19.53 6.15 19.22 7.38 18.92 8.46 18.76 9.54 18.15 10.61 17.07 11.53 15.99 12.77 15.22 13.84 14.15 14.76 13.23 16 12.15 16.92 11.23 17.69 10 18.45 8.77 18.92 7.38 19.53 6 20.15 4.77 20.76 3.23 21.37 2.15 21.84 0.62 20.3 -0.62 20 -1.84 19.69 -3.08 19.22 -4.15 18.92 -5.54 18.61 -6.61 18.3 -7.85 17.84 -9.22 17.22 -10.15 16.15 -11.54 15.22 -12.61 14.15 -13.69 13.22 -14.92 12.15 -15.99 11.07 -17.07 10.15 -18.3 9.07 -19.22 7.85 -19.84 6.61 -20.45 5.54 -21.07 4.15 -21.68 3.08 -22.46 1.84 -22.91 0.62 -23.69 -0.62 -23.22 -1.69 -22.76 -2.93 -21.99 -4 -21.38 -5.23 -20.76 -6.31 -20.3 -7.38 -19.53 -8.61 -18.91 -9.69 -18.15 -10.77 -17.07 0.02 -0.01 0 0zm-361.56 -16.61l17.84 -10.46 18.61 -8.61 19.38 -6.61 20.3 -4.77 20.92 -2.77 21.68 -0.92c10.13,-0.02 20.25,0.6 30.3,1.85 9.74,1.46 19.39,3.46 28.91,6l13.84 4.46 13.38 5.38c8.9,4.05 17.54,8.67 25.83,13.84l12 8.3 11.38 9.07 10.61 9.84 10 10.76 9.07 11.54c5.85,8.12 11.19,16.59 15.99,25.37l6.92 13.84c6.5,14.81 11.75,30.14 15.69,45.83 2.78,11.06 4.98,22.25 6.61,33.53 2.51,18.14 3.69,36.44 3.54,54.75 0.1,19.19 -1.13,38.35 -3.69,57.37 -2.37,17.05 -6.17,33.87 -11.38,50.29 -4.9,15.1 -11.28,29.69 -19.07,43.52 -7.45,13.08 -16.32,25.31 -26.45,36.45l-15.84 15.53 -16.61 13.38 -17.84 11.38 -18.76 9.23 -19.99 7.23 -20.76 5.23 -21.99 3.07 -22.91 1.08 -22.61 -1.08 -21.69 -3.07 -20.61 -5.07 -19.69 -7.23 -18.61 -9.23 -17.84 -11.22 -16.76 -13.23 -15.69 -15.38 -14.3 -17.07 -12.46 -18.61 -10.46 -20.15 -8.61 -21.69 -6.77 -23.07 -4.77 -24.76 -2.92 -26.15 -0.92 -27.68c0,-22.05 1.33,-44.09 4,-65.98 2.47,-18.85 6.48,-37.47 12,-55.67 4.82,-15.94 11.48,-31.27 19.84,-45.67 5.93,-9.73 12.67,-18.94 20.15,-27.53l7.85 -7.84 16.3 -14.3 17.07 -12.3 -0.01 0z"
   id="path942"
   style="stroke-width:0;stroke-miterlimit:4;stroke-dasharray:none;fill:#000000;fill-opacity:1" />
   </g>
   <polygon
   class="fil1"
   points="3021.75,5791.17 3021.75,5716.89 2523.16,5716.89 2523.16,5791.17 2730.32,5791.17 2730.32,6346.04 2813.67,6346.04 2813.67,5791.17 "
   id="polygon946"
   style="stroke-width:0;stroke-miterlimit:4;stroke-dasharray:none;fill:#000000;fill-opacity:1" />
   <g
   id="g950"
   style="stroke-width:0;stroke-miterlimit:4;stroke-dasharray:none;fill:#000000;fill-opacity:1">
    <path
   class="fil1"
   d="M668.47 7303.22l14.61 -13.38 14 -15.22 13.38 -17.22c6.83,-9.48 12.95,-19.45 18.3,-29.83 10.13,-19.74 18.37,-40.38 24.61,-61.67 4.4,-14.36 7.79,-29 10.15,-43.83 3.73,-21.65 5.84,-43.55 6.3,-65.52 0.87,-26.09 -0.21,-52.2 -3.23,-78.13l-2.61 -19.07c-2.07,-12.15 -4.63,-24.2 -7.69,-36.14l-5.07 -17.38c-3.61,-11.05 -7.71,-21.93 -12.3,-32.6 -4.6,-10.24 -9.79,-20.2 -15.54,-29.84l-8.92 -13.69 -9.69 -13.07 -10.46 -12.46 -11.23 -11.54c-6.95,-6.63 -14.24,-12.89 -21.84,-18.76 -10.19,-7.55 -21.05,-14.14 -32.45,-19.69 -7.74,-3.91 -15.76,-7.25 -23.99,-10 -19.4,-6.73 -39.54,-11.12 -59.98,-13.07 -20.04,-1.92 -40.15,-3.05 -60.29,-3.39l-234.53 0 0 629 226.99 0 27.68 -0.61 26.15 -2 24.45 -3.38 22.76 -4.61 21.22 -6 19.53 -7.23 17.99 -8.61 16.46 -9.69 15.22 -11.38 0.02 0.01 0 0zm-335.26 -20.61l0 -480.74 132.26 0c21.37,-0.02 42.72,1.06 63.98,3.23 8.2,0.98 16.36,2.32 24.45,4 6.56,1.35 12.98,3.26 19.22,5.69l11.38 5.07 10.92 6.15 10.46 7.23 10.15 8.31 9.54 9.38c6.48,6.98 12.49,14.37 17.99,22.15l8.3 12.76 7.69 13.99 6.46 15.38 5.69 16.76 4.46 18.3 3.54 19.69 2.61 21.07 1.54 22.45 0.46 23.99c0.06,22.06 -1.33,44.1 -4.15,65.98 -2.02,14.3 -4.84,28.47 -8.46,42.45 -4.57,16.37 -10.64,32.27 -18.15,47.52 -6.67,13.39 -14.99,25.89 -24.76,37.22l-7.23 7.69 -11.38 10 -13.22 8.77 -14.92 7.54 -16.92 6.3c-13.69,4.25 -27.74,7.18 -41.98,8.77 -18.44,2.02 -36.97,2.99 -55.52,2.92l-134.41 0 0 -0.02z"
   id="path948"
   style="stroke-width:0;stroke-miterlimit:4;stroke-dasharray:none;fill:#000000;fill-opacity:1" />
   </g>
   <polygon
   class="fil1"
   points="980.2,7356.73 980.2,6727.74 897,6727.74 897,7356.73 "
   id="polygon952"
   style="stroke-width:0;stroke-miterlimit:4;stroke-dasharray:none;fill:#000000;fill-opacity:1" />
   <path
   class="fil1"
   d="M1547.52 7304.3l9.23 -9.54 8.3 -10.15c5.17,-7.06 9.94,-14.4 14.3,-21.99 6.15,-11.05 11.14,-22.69 14.92,-34.76 2.32,-7.87 4.12,-15.88 5.38,-23.99 2.21,-16.38 2.27,-32.98 0.15,-49.37 -1.2,-7.78 -2.85,-15.48 -4.92,-23.07 -4.44,-14.85 -11.08,-28.94 -19.69,-41.83l-6.92 -9.38c-5.2,-6.3 -10.81,-12.25 -16.76,-17.84 -13.37,-11.93 -28.2,-22.11 -44.14,-30.3l-13.22 -6.61c-17.5,-7.4 -35.49,-13.62 -53.83,-18.61 -28.32,-7.89 -56.83,-15.07 -85.51,-21.53 -21.96,-4.78 -43.72,-10.48 -65.2,-17.07l-16.92 -5.54c-9.06,-3.27 -17.94,-7.02 -26.61,-11.23l-9.54 -5.54 -7.23 -5.38c-3.91,-3.59 -7.5,-7.5 -10.76,-11.69 -6.03,-8.34 -10.17,-17.89 -12.15,-27.99l-1.23 -7.84c-0.46,-5.94 -0.41,-11.91 0.15,-17.84 0.8,-6.18 2.24,-12.26 4.3,-18.15l3.85 -8.61 4.92 -8.15 5.84 -7.69 7.07 -7.54 8 -7.07 9.38 -6.46 10.46 -5.69 11.84 -4.77 13.23 -3.84 14.3 -3.08 15.69 -2.15c17.53,-1.71 35.16,-2.12 52.75,-1.23l16.61 1.39 15.38 2.46 14.15 3.23 13.23 4.31 11.99 5.23 10.92 6.3 9.84 7.07 8.76 8.15 7.85 8.92 6.92 9.84 6 10.92 4.92 11.69 4 12.61 3.08 13.53 2 14.46 79.81 -6c-0.33,-9.02 -1.2,-18 -2.61,-26.91 -2.92,-17.19 -8.15,-33.89 -15.53,-49.68 -3.69,-7.81 -7.9,-15.37 -12.61,-22.61 -7.28,-10.8 -15.69,-20.8 -25.07,-29.83l-10 -8.61c-7.01,-5.52 -14.36,-10.61 -21.99,-15.23 -12.33,-7.15 -25.3,-13.13 -38.75,-17.84 -24.48,-8.55 -49.97,-13.87 -75.82,-15.84 -21.65,-1.8 -43.4,-1.86 -65.06,-0.15 -19.52,1.8 -38.82,5.4 -57.67,10.76 -9.04,2.79 -17.96,5.92 -26.76,9.38 -8.41,3.46 -16.57,7.47 -24.45,12 -7.39,4.34 -14.48,9.17 -21.22,14.46l-9.54 8.15c-5.91,5.75 -11.45,11.86 -16.61,18.3 -9.77,12.83 -17.69,26.96 -23.53,41.98l-3.85 10.92c-2.18,7.47 -3.87,15.07 -5.07,22.76 -1.6,11.31 -2.07,22.74 -1.38,34.14 1.3,20.54 6.96,40.57 16.61,58.75 6.69,12.29 15.07,23.57 24.91,33.53 14.02,13.56 29.99,24.96 47.37,33.83 6.65,3.6 13.53,6.73 20.61,9.38 26.16,9.8 52.86,18.06 79.97,24.76 13.85,3.56 27.74,6.94 41.68,10.15 21.32,5.19 42.56,10.78 63.67,16.76 12.62,3.45 25,7.71 37.06,12.76 11.07,4.65 21.54,10.58 31.22,17.69 3.97,3.18 7.77,6.56 11.38,10.15l4.61 5.54 7.54 11.38 5.38 12.46 3.08 13.53 1.07 14.3 -1.07 14.3 -3.39 13.69 -5.54 13.23 -7.69 12.61c-6.26,8.54 -13.9,15.97 -22.61,21.99 -7.15,5.17 -14.83,9.55 -22.92,13.07l-8.76 3.85 -19.07 6.15 -20.3 4.46 -21.69 2.61 -23.07 0.92c-17.13,0.04 -34.23,-1.56 -51.06,-4.77 -19.43,-3.67 -38.26,-9.98 -55.98,-18.76 -12.47,-6.09 -24.06,-13.86 -34.45,-23.07 -9.26,-8.31 -17.11,-18.07 -23.22,-28.91 -4.92,-8.41 -8.89,-17.33 -11.84,-26.61 -3.52,-10.25 -6.1,-20.81 -7.69,-31.53l-1.69 -11.54 -78.43 6.92c0.29,10.3 1.22,20.57 2.77,30.76l2.77 14.76 3.85 14.3c2.98,9.38 6.53,18.57 10.61,27.53l6.77 13.07 7.69 12.61 8.61 12.15 9.38 11.38 10.15 10.46 10.92 9.84 11.69 8.92c8.27,5.73 16.9,10.92 25.83,15.53l14 6.61 14.92 5.84 15.69 5.07c11.19,3.21 22.53,5.83 33.99,7.84 25.98,4.27 52.26,6.33 78.59,6.15l16.61 -0.31c10.7,-0.6 21.37,-1.63 31.99,-3.08 10.19,-1.59 20.3,-3.65 30.3,-6.15 19.19,-5.12 37.76,-12.34 55.37,-21.53l12.3 -7.07c11.51,-7.28 22.28,-15.67 32.14,-25.07l0 0.07z"
   id="path954"
   style="stroke-width:0;stroke-miterlimit:4;stroke-dasharray:none;fill:#000000;fill-opacity:1" />
   <polygon
   class="fil1"
   points="1961.06,7356.73 1961.06,6801.87 2169.29,6801.87 2169.29,6727.74 1670.56,6727.74 1670.56,6801.87 1877.86,6801.87 1877.86,7356.73 "
   id="polygon956"
   style="stroke-width:0;stroke-miterlimit:4;stroke-dasharray:none;fill:#000000;fill-opacity:1" />
   <path
   class="fil1"
   d="M2405.82 7265.85c-5.64,-3.78 -10.94,-8.06 -15.84,-12.76 -4.68,-4.68 -9.05,-9.67 -13.07,-14.92l-5.54 -8.3c-5.35,-9.02 -9.54,-18.69 -12.46,-28.76 -3.65,-12.84 -6.27,-25.96 -7.84,-39.22 -2.13,-17.04 -3.31,-34.19 -3.54,-51.37l-0.31 -19.84 0 -362.94 -83.2 0 0 363.41c-0.07,15.8 0.39,31.6 1.39,47.37 1.04,14.09 2.58,28.15 4.61,42.14l3.38 18.91 4.15 17.84 4.77 16.45 5.69 15.07 6.46 13.99 7.54 13.07 8.61 12.3 9.38 11.53 10.61 10.61 11.54 9.69 12.61 8.92 13.54 8 14.46 7.23 15.69 6.15 16.46 5.23 17.69 4.31 18.45 3.23 19.69 2.46 20.61 1.39c14.55,0.61 29.12,0.61 43.68,0l21.22 -1.69 19.99 -2.77 18.92 -3.85 17.84 -4.92 16.76 -6 15.53 -7.07 14.61 -8.15 13.38 -9.07 12.46 -9.69 11.23 -10.46 10.3 -10.92 9.07 -11.69 8.15 -12.3 6.92 -13.07 6 -13.53c3.64,-9.99 6.77,-20.15 9.38,-30.45l3.69 -16.92c2.2,-12.5 3.99,-25.06 5.38,-37.68 2.01,-21.83 2.98,-43.74 2.93,-65.67l0 -363.41 -83.2 0 0 362.94c0.26,26.15 -1.59,52.28 -5.54,78.13 -2.18,13.56 -5.42,26.93 -9.69,39.98 -3.6,10.74 -8.57,20.97 -14.76,30.45 -2.68,4.1 -5.72,7.96 -9.07,11.53l-10.61 9.84 -12.3 8.46 -13.84 7.07 -15.53 5.84 -17.22 4.61 -18.76 3.23 -20.45 2 -22.15 0.61c-16.65,0.07 -33.26,-1.69 -49.52,-5.23 -7.34,-1.83 -14.57,-4.04 -21.69,-6.61 -10.03,-3.89 -19.62,-8.84 -28.61,-14.76l-0.03 0.03z"
   id="path958"
   style="stroke-width:0;stroke-miterlimit:4;stroke-dasharray:none;fill:#000000;fill-opacity:1" />
   <g
   id="g962"
   style="stroke-width:0;stroke-miterlimit:4;stroke-dasharray:none;fill:#000000;fill-opacity:1">
    <path
   class="fil1"
   d="M2980.07 7356.73l0 -279.28 96.58 0c12.74,-0.19 25.47,0.37 38.14,1.69l8.15 1.23c9.96,2.54 19.57,6.31 28.6,11.22l9.38 5.54 9.69 7.23 10.15 9.38 10.92 11.53c13.66,16.17 26.44,33.06 38.29,50.6 11.35,16.51 22.47,33.17 33.37,49.98l83.2 130.87 104.73 0 -109.5 -171.17 -16.46 -23.99 -17.07 -21.99 -17.53 -19.84 -17.99 -17.84 -9.54 -7.85 -11.54 -7.69c-9.5,-5.71 -19.25,-11 -29.22,-15.84l21.99 -3.54 20.46 -4.76 18.91 -5.69 17.53 -6.77 16 -7.84 14.46 -8.92 13.07 -9.84 11.54 -10.92 10.15 -11.84 8.77 -12.46 7.54 -13.22 6.15 -13.69 4.61 -14.46 3.38 -15.07 2.15 -15.84 0.61 -16.3c-0.04,-12.65 -1.28,-25.26 -3.69,-37.68 -1.72,-8.01 -3.87,-15.91 -6.46,-23.69 -4.18,-11.69 -9.54,-22.92 -15.99,-33.52 -4.33,-6.88 -9.06,-13.5 -14.15,-19.84l-8 -8.77 -8.46 -7.84c-5.84,-4.94 -12.07,-9.41 -18.61,-13.38 -6.65,-3.86 -13.59,-7.2 -20.76,-10l-11.53 -4c-13.87,-3.94 -28,-6.87 -42.3,-8.77 -24.58,-3.1 -49.35,-4.49 -74.13,-4.15l-278.97 0 0 629 83.35 0 0.03 0.02 0 0zm0 -351.41l0 -208.07 199.16 0c10.89,0.01 21.77,0.57 32.6,1.69l14.46 2.31 13.38 3.08 12.3 4.15 11.07 4.92 9.84 5.85 8.61 6.76 7.69 7.38 6.46 7.85 5.69 8.46 4.46 8.92c2.67,6.25 4.72,12.74 6.15,19.38l1.54 10.46 0.46 10.92 -1.08 14.92 -3.07 14.46 -5.23 13.69 -7.38 13.38c-8.52,12.97 -20.15,23.6 -33.83,30.91 -7.47,4.03 -15.36,7.22 -23.53,9.54 -13.56,3.82 -27.47,6.3 -41.52,7.38 -13.09,1.2 -26.22,1.77 -39.37,1.69l-178.85 0 -0.01 -0.03z"
   id="path960"
   style="stroke-width:0;stroke-miterlimit:4;stroke-dasharray:none;fill:#000000;fill-opacity:1" />
   </g>
   <g
   id="g966"
   style="stroke-width:0;stroke-miterlimit:4;stroke-dasharray:none;fill:#000000;fill-opacity:1">
    <path
   class="fil1"
   d="M3989.38 7237.24l5.85 -20.15 3.54 -20.92 1.23 -21.84 -0.46 -13.38c-0.74,-8.63 -2.02,-17.21 -3.85,-25.69l-3.38 -12.15 -4.31 -11.69 -5.23 -11.23 -6.31 -10.76 -7.23 -10.31 -8 -9.69 -8.92 -9.07c-6.41,-5.68 -13.19,-10.92 -20.3,-15.69l-11.38 -6.76c-8.18,-4.29 -16.6,-8.09 -25.22,-11.38l-13.84 -4.46c10.48,-5.27 20.51,-11.39 29.99,-18.3 8.65,-6.58 16.59,-14.06 23.68,-22.3 8.92,-10.61 16.32,-22.41 21.99,-35.07 5.37,-12.1 9.05,-24.88 10.92,-37.98 1.86,-13.68 1.81,-27.55 -0.15,-41.22 -1.13,-7.11 -2.67,-14.14 -4.61,-21.07 -4.46,-14.27 -10.72,-27.91 -18.61,-40.6 -6.04,-9.7 -13.1,-18.72 -21.07,-26.91 -10.78,-10.72 -23.12,-19.75 -36.6,-26.76 -10.91,-5.61 -22.35,-10.15 -34.14,-13.53 -13.79,-3.65 -27.82,-6.33 -41.98,-8 -16.64,-1.99 -33.39,-2.86 -50.14,-2.62l-235.91 0 0 629 239.91 0 14.61 -0.15c25.56,-0.28 51.04,-2.9 76.13,-7.84l10.61 -2.46 19.84 -5.84 18.15 -7.23 16.3 -8.31 14.61 -9.69 13.23 -11.38 12.15 -13.54 10.92 -15.84 9.84 -17.84 8.15 -19.38 -0.01 0.03 0 0zm-381.24 -245.3l0 -190.08 125.8 0c19.3,-0.11 38.6,0.66 57.83,2.31 7.15,0.68 14.28,1.56 21.38,2.61 5.55,0.98 11.04,2.26 16.45,3.84 13.24,4.06 25.18,11.54 34.6,21.69 3.09,3.44 5.87,7.14 8.31,11.07l6.61 12.31 4.61 13.38 2.93 14.15 0.92 15.22 -1.07 15.84 -3.08 14.46 -4.92 13.07 -7.07 11.53c-6.98,9.39 -15.97,17.11 -26.3,22.61 -13.69,7.16 -28.62,11.65 -43.98,13.23 -14.5,1.72 -29.08,2.65 -43.68,2.77l-149.33 0 -0.01 -0.01 0 0zm0 290.67l0 -216.38 145.48 0c17.72,0.02 35.43,0.89 53.06,2.61 13.24,1.42 26.33,4.1 39.06,8 12.66,3.96 24.38,10.44 34.45,19.07 15.82,13.96 26.67,32.69 30.91,53.37 1.76,8.24 2.64,16.64 2.61,25.07l-0.77 14.61 -2.31 13.69 -4 12.92 -5.38 11.84 -6.61 10.76 -7.54 9.54 -8.46 8 -9.22 6.77 -10.15 5.54 -11.38 4.77 -12.61 3.85c-6.06,1.46 -12.16,2.69 -18.3,3.69 -14.09,1.56 -28.27,2.28 -42.44,2.15l-9.69 0.15 -156.71 0 0 -0.02z"
   id="path964"
   style="stroke-width:0;stroke-miterlimit:4;stroke-dasharray:none;fill:#000000;fill-opacity:1" />
   </g>
  </g>
 </g>
</svg>
