<?xml version="1.0" encoding="UTF-8" standalone="no"?>
<svg
   version="1.1"
   id="Layer_1"
   x="0px"
   y="0px"
   viewBox="0 0 1250.0708 1567.8364"
   enable-background="new 0 0 1250.0708 1567.8364"
   xml:space="preserve"
   sodipodi:docname="gaston.svg"
   inkscape:version="1.3.2 (091e20e, 2023-11-25)"
   xmlns:inkscape="http://www.inkscape.org/namespaces/inkscape"
   xmlns:sodipodi="http://sodipodi.sourceforge.net/DTD/sodipodi-0.dtd"
   xmlns="http://www.w3.org/2000/svg"
   xmlns:svg="http://www.w3.org/2000/svg"><defs
   id="defs11"><rect
     x="391.30283"
     y="540.37058"
     width="700.08602"
     height="412.59823"
     id="rect1" /><rect
     x="540.37058"
     y="553.6802"
     width="279.50202"
     height="167.70121"
     id="rect26" /><rect
     x="495.11787"
     y="590.94713"
     width="606.91868"
     height="420.584"
     id="rect25" /><rect
     x="268.85433"
     y="239.57316"
     width="569.65174"
     height="191.65853"
     id="rect24" /><rect
     x="351.29579"
     y="578.60483"
     width="681.92712"
     height="376.09314"
     id="rect23" /></defs><sodipodi:namedview
   id="namedview11"
   pagecolor="#ffffff"
   bordercolor="#000000"
   borderopacity="0.25"
   inkscape:showpageshadow="2"
   inkscape:pageopacity="0.0"
   inkscape:pagecheckerboard="0"
   inkscape:deskcolor="#d1d1d1"
   inkscape:zoom="3.5171586"
   inkscape:cx="47.481509"
   inkscape:cy="96.1003"
   inkscape:window-width="1392"
   inkscape:window-height="847"
   inkscape:window-x="50"
   inkscape:window-y="25"
   inkscape:window-maximized="1"
   inkscape:current-layer="g11" />
<g
   id="g11">
	<path
   d="m 62.055743,95.711576 c -2.710096,-0.112682 -5.068744,2.373403 -5.017824,5.170714 0.05123,2.81402 2.200432,5.10612 5.016071,5.12425 2.751077,0.0177 5.004099,-2.45548 5.014531,-5.15612 0.01076,-2.783039 -2.362161,-5.247271 -5.012778,-5.138844 z"
   id="path20"
   style="fill:none;stroke:#ff0000;stroke-width:0.695115;stroke-dasharray:none;stroke-opacity:1" /><path
   d="m 45.406303,122.30118 c 0,-0.14854 0.0068,-0.29746 -10e-4,-0.4456 -0.103745,-1.95375 -1.297903,-3.37268 -3.095193,-3.66948 -0.978298,-0.16156 -1.925239,0.0128 -2.863872,0.28428 -0.545211,0.15772 -1.097203,0.26263 -1.669139,0.11996 -0.254985,-0.0636 -0.38911,-0.21346 -0.444655,-0.46213 -0.103995,-0.46561 -0.004,-0.91496 0.115192,-1.35737 0.215676,-0.80043 0.345555,-1.60816 0.296532,-2.44009 -0.09525,-1.61658 -1.134529,-2.79523 -2.715213,-3.06842 -1.29503,-0.22382 -2.510325,0.0844 -3.690969,0.58391 -0.755946,0.31981 -1.074421,1.05197 -0.78191,1.74638 0.294521,0.69919 1.031356,0.97583 1.789877,0.66543 0.525173,-0.21493 1.062779,-0.38225 1.627552,-0.44766 0.899009,-0.1041 1.253936,0.243 1.17354,1.14175 -0.006,0.067 -0.01851,0.13378 -0.03152,0.19996 -0.132582,0.67431 -0.291986,1.34452 -0.393865,2.02345 -0.259409,1.72872 0.497908,3.21036 1.942523,3.79859 1.09442,0.44565 2.212203,0.3574 3.326442,0.0644 0.54576,-0.14348 1.0844,-0.31696 1.660783,-0.28579 0.672789,0.0364 0.999523,0.32631 1.112472,0.99567 0.1178,0.69821 -0.01488,1.37122 -0.207312,2.03565 -0.29846,1.0305 -0.507064,2.0669 -0.375788,3.15156 0.178916,1.47832 1.259037,2.45731 2.7348,2.4204 1.209959,-0.0303 2.261507,-0.54057 3.262758,-1.16854 0.129572,-0.0813 0.231015,-0.22781 0.311491,-0.36432 0.288466,-0.48926 0.210913,-1.12253 -0.172861,-1.54071 -0.407397,-0.44393 -1.01538,-0.54977 -1.58859,-0.24916 -0.453238,0.23767 -0.899726,0.48825 -1.393114,0.63239 -0.540657,0.15797 -0.573396,0.1274 -0.579742,-0.42625 -0.0066,-0.5751 0.135845,-1.12351 0.293481,-1.66835 0.214762,-0.74214 0.368934,-1.49301 0.357332,-2.26995 z"
   id="path18"
   style="fill:none;stroke:#ff0000;stroke-width:0.695115;stroke-dasharray:none;stroke-opacity:1" /><path
   d="m 83.359973,120.57847 c -2.03528,-0.0142 -3.45343,1.0995 -3.840789,3.04527 -0.226752,1.13907 -0.06425,2.25721 0.261323,3.35795 0.180507,0.61026 0.318774,1.22539 0.299809,1.87029 -0.0086,0.29545 -0.109097,0.3748 -0.396699,0.30244 -0.581695,-0.14638 -1.093571,-0.44204 -1.624032,-0.70359 -0.658054,-0.32444 -1.404465,-0.08 -1.736391,0.54255 -0.330965,0.62077 -0.117211,1.38155 0.509938,1.75593 0.672853,0.40168 1.381884,0.72528 2.143134,0.92174 2.122594,0.54778 3.676307,-0.63189 3.728947,-2.83177 0.02059,-0.86004 -0.152,-1.69114 -0.395175,-2.50919 -0.197816,-0.66548 -0.321825,-1.33818 -0.249777,-2.03596 0.07768,-0.75235 0.436445,-1.0863 1.180555,-1.10366 0.449016,-0.0105 0.880996,0.0807 1.309044,0.20626 0.831741,0.244 1.673653,0.37421 2.546544,0.28913 1.590704,-0.15502 2.718644,-1.17507 2.997544,-2.7562 0.148624,-0.84264 0.0084,-1.66611 -0.200134,-2.48272 -0.136895,-0.53613 -0.274588,-1.07163 -0.173936,-1.63608 0.05435,-0.30481 0.213753,-0.4769 0.518867,-0.53536 0.214796,-0.0411 0.425022,-0.0488 0.640915,-0.0226 0.606166,0.0732 1.173862,0.27273 1.740993,0.49091 0.680572,0.26181 1.397401,-0.0662 1.665037,-0.72672 0.263075,-0.64918 -0.0038,-1.37587 -0.650941,-1.6712 -1.064992,-0.48606 -2.177333,-0.77114 -3.360586,-0.71399 -1.6382,0.0791 -2.84317,1.13933 -3.127575,2.74859 -0.16147,0.9136 -0.01743,1.80119 0.203751,2.68344 0.101775,0.40598 0.217209,0.81011 0.198163,1.23374 -0.02379,0.52879 -0.210749,0.72772 -0.73384,0.78026 -0.516711,0.0519 -1.017744,-0.0412 -1.5111,-0.18962 -0.633907,-0.19062 -1.278067,-0.31826 -1.943589,-0.30982 z"
   id="path17"
   style="fill:none;stroke:#ff0000;stroke-width:0.695115;stroke-dasharray:none;stroke-opacity:1" /><path
   d="m 101.65033,73.526636 c 0.33574,-0.01752 0.67288,-0.02135 1.00681,-0.05625 0.36803,-0.03846 0.70869,-0.155474 0.96042,-0.454124 0.35186,-0.417469 0.42426,-0.965249 0.18704,-1.437303 -0.25569,-0.508791 -0.74891,-0.793337 -1.32617,-0.727833 -0.48339,0.05484 -0.96643,0.08661 -1.44898,0.03634 -0.6106,-0.06361 -0.64932,-0.145779 -0.39251,-0.696526 0.25918,-0.555863 0.63911,-1.02855 1.02143,-1.500247 0.66951,-0.826012 1.19217,-1.729753 1.4421,-2.776054 0.42621,-1.78425 -0.2818,-3.363789 -1.89531,-4.222995 -0.72342,-0.385239 -1.50623,-0.567592 -2.311295,-0.666291 -0.510769,-0.06261 -1.009784,-0.164682 -1.461755,-0.422883 -0.468037,-0.267385 -0.548029,-0.501082 -0.361443,-1.00612 0.142329,-0.38523 0.3822,-0.710753 0.632931,-1.0294 0.503269,-0.63955 0.930906,-1.322312 1.188474,-2.102087 0.530752,-1.606808 -0.03618,-3.113353 -1.498417,-3.953705 -1.057329,-0.607659 -2.217926,-0.796124 -3.41575,-0.808778 -0.801933,-0.0084 -1.388465,0.5129 -1.415083,1.240075 -0.02872,0.784672 0.483038,1.313776 1.321769,1.366911 0.711639,0.04508 1.426143,0.07893 2.085198,0.39773 0.489941,0.236996 0.593572,0.499039 0.413194,1.01665 -0.144152,0.41365 -0.385501,0.771166 -0.651063,1.112236 -0.465654,0.598037 -0.890257,1.21814 -1.150424,1.939836 -0.548958,1.522781 -0.07691,3.004028 1.252109,3.91392 0.65607,0.449172 1.386123,0.70516 2.161017,0.850274 0.592547,0.110964 1.202992,0.128278 1.770397,0.370818 0.787761,0.336741 1.003891,0.793871 0.739031,1.611608 -0.22513,0.695066 -0.657746,1.260972 -1.110121,1.817719 -0.63297,0.778997 -1.176406,1.609329 -1.438309,2.598515 -0.395634,1.494175 0.297202,2.816284 1.746402,3.317406 0.631968,0.218547 1.284668,0.278127 1.948308,0.270571 z"
   id="path16"
   style="fill:none;stroke:#ff0000;stroke-width:0.695115;stroke-dasharray:none;stroke-opacity:1" /><path
   d="m 23.284833,73.524991 c 0.84238,0.02297 1.665837,-0.05484 2.445688,-0.409184 0.626076,-0.284473 1.108749,-0.7465 1.34167,-1.375146 0.307318,-0.829417 0.180637,-1.671763 -0.173201,-2.479414 -0.339014,-0.773834 -0.812493,-1.458403 -1.351697,-2.101795 -0.445067,-0.531067 -0.822068,-1.104324 -1.008768,-1.780756 -0.185884,-0.673497 0.0065,-1.085299 0.631244,-1.393871 0.315891,-0.156017 0.650489,-0.254756 0.99949,-0.301018 0.99011,-0.131244 1.967342,-0.30468 2.839853,-0.838219 1.305799,-0.798492 1.931293,-1.959639 1.64575,-3.536309 -0.158847,-0.877097 -0.672079,-1.555935 -1.126689,-2.276002 -0.291146,-0.46116 -0.716596,-0.836444 -0.861571,-1.392737 -0.114879,-0.440765 -0.0524,-0.667831 0.349453,-0.873837 0.497133,-0.254853 1.020118,-0.369432 1.595444,-0.365208 0.369799,0.0027 0.77885,-0.02731 1.132647,-0.150222 0.552123,-0.191788 0.864865,-0.893908 0.755171,-1.508182 -0.09835,-0.550788 -0.612569,-1.025315 -1.188798,-1.036518 -1.210452,-0.02354 -2.386502,0.150757 -3.478806,0.717465 -1.360562,0.705888 -2.024461,1.990612 -1.776693,3.487333 0.14663,0.885753 0.585392,1.643302 1.099803,2.363222 0.33002,0.461865 0.708716,0.894662 0.881594,1.455201 0.07807,0.253151 0.05592,0.455567 -0.154002,0.64661 -0.44611,0.405966 -0.990909,0.558165 -1.561083,0.631491 -1.073339,0.138046 -2.083019,0.412557 -3.012004,1.017655 -1.022234,0.665837 -1.790863,2.448449 -1.445543,3.623045 0.34896,1.186997 0.874932,2.283215 1.699511,3.223165 0.400567,0.456621 0.744086,0.955904 0.972509,1.528432 0.103261,0.258817 0.06981,0.394325 -0.234954,0.446634 -0.578362,0.09925 -1.150474,0.05044 -1.727672,0.0013 -0.714425,-0.06078 -1.32646,0.496056 -1.435856,1.120974 -0.137338,0.784581 0.597423,1.528675 1.26196,1.507898 0.294409,-0.0092 0.590319,0.03046 0.88555,0.04796 z"
   id="path15"
   style="fill:none;stroke:#ff0000;stroke-width:0.695115;stroke-dasharray:none;stroke-opacity:1" /><path
   d="m 62.081336,52.861098 c 1.739224,-0.01491 3.425463,-0.300182 5.046419,-0.95801 0.557725,-0.226337 1.149731,-0.436898 1.629644,-0.757006 0.762122,-0.508344 1.56558,-0.963222 2.261168,-1.589972 1.08792,-0.980269 2.075946,-2.050888 2.910238,-3.238396 0.547835,-0.779784 0.99513,-1.652389 1.344212,-2.555992 0.03553,-0.09195 0.04793,-0.214582 0.02902,-0.343947 -0.138235,-0.94556 -0.636806,-1.506334 -1.548384,-1.693648 -0.709434,-0.145779 -1.580298,0.222372 -1.812056,0.877825 -0.324724,0.918364 -0.929017,1.660332 -1.46077,2.433663 -0.501946,0.729981 -1.158595,1.366093 -1.875086,1.914628 -1.393695,1.066979 -2.872405,1.918379 -4.654936,2.187013 -1.030356,0.155287 -2.03658,0.26103 -3.080854,0.146613 -1.245248,-0.136432 -2.406516,-0.513832 -3.505302,-1.074332 -1.526481,-0.778664 -2.756195,-1.926169 -3.810021,-3.273642 -0.538995,-0.689182 -1.003786,-1.421642 -1.392387,-2.205252 -0.429963,-0.866979 -1.481988,-1.26441 -2.308795,-0.878182 -0.912967,0.426483 -1.300091,1.392574 -0.895003,2.326518 0.359262,0.828299 0.865696,1.572253 1.403456,2.295205 1.769008,2.378169 3.859664,4.350235 6.678607,5.431271 1.625977,0.623539 3.297926,0.968792 5.040833,0.955643 z"
   id="path14"
   style="fill:none;stroke:#ff0000;stroke-width:0.695115;stroke-dasharray:none;stroke-opacity:1" /><path
   d="m 111.43625,62.821659 c -0.0252,1.767981 -0.27588,3.495123 -0.91101,5.155002 -1.06436,2.781606 -2.9384,4.730635 -5.71436,5.865381 -3.58731,1.466404 -7.245865,2.729412 -10.889684,4.037537 -1.869951,0.671317 -3.750599,1.30203 -5.530789,2.224253 -2.263542,1.172625 -3.375561,3.032221 -3.657125,5.493898 -0.270978,2.369221 0.02952,4.700173 0.590852,6.986858 1.152588,4.695301 2.62186,9.292842 4.507134,13.747952 0.574688,1.35802 1.294649,2.63854 2.247726,3.77564 1.41308,1.68588 3.298629,2.54576 5.354254,3.12322 1.643417,0.46166 3.335052,0.73107 4.956892,1.27887 2.28985,0.7734 4.4422,1.79151 6.22151,3.47983 2.26501,2.14917 3.19022,4.80508 2.79573,7.88318 -0.55056,4.29594 -2.74807,7.67931 -6.03106,10.37038 -3.55908,2.91741 -7.649576,4.33203 -12.26819,4.04536 -2.139775,-0.1328 -4.176605,-0.73064 -6.161482,-1.51841 -3.707898,-1.4716 -7.033751,-3.60515 -10.209978,-5.98685 -1.777784,-1.33307 -3.474026,-2.77842 -5.279793,-4.07065 -3.324141,-2.37877 -7.00559,-3.76115 -11.145995,-3.65507 -2.205978,0.0565 -4.221413,0.74288 -6.042746,1.99978 -2.817391,1.9443 -5.440067,4.1481 -8.187059,6.18615 -2.815526,2.0889 -5.68689,4.08777 -8.894748,5.54136 -2.39975,1.08741 -4.886524,1.75197 -7.547953,1.49844 -2.512012,-0.23929 -4.856167,-1.03546 -7.068298,-2.23239 -3.228898,-1.74709 -5.95099,-4.0708 -7.951094,-7.18525 -1.09199,-1.70039 -1.839086,-3.53681 -1.989407,-5.58254 -0.177334,-2.41334 0.695355,-4.40534 2.392767,-6.07559 1.6025,-1.57687 3.542594,-2.61874 5.553726,-3.54648 1.796853,-0.82892 3.63916,-1.55202 5.505963,-2.1991 2.832353,-0.98176 5.050013,-2.76967 6.887678,-5.08927 2.270752,-2.86625 3.816229,-6.11513 5.009128,-9.553683 0.751425,-2.166003 1.546244,-4.317229 2.062996,-6.557045 0.395876,-1.715883 0.651193,-3.44626 0.544348,-5.216121 -0.201385,-3.335953 -1.810668,-5.657664 -4.916655,-6.90831 -2.594692,-1.044769 -5.20026,-2.063656 -7.776585,-3.152304 -0.840686,-0.355237 -1.68996,-0.700117 -2.526012,-1.070335 -1.062876,-0.47066 -2.136021,-0.922311 -3.184728,-1.425509 -1.55372,-0.745519 -3.104509,-1.507404 -4.437347,-2.62409 -1.46718,-1.229246 -2.895285,-2.498398 -3.876248,-4.189008 -0.738369,-1.272515 -1.163948,-2.651699 -1.189032,-4.103009 -0.06663,-3.854893 0.916092,-7.415318 3.352035,-10.45344 1.752716,-2.185991 4.147421,-3.244135 6.895251,-3.521499 2.318256,-0.234005 4.542456,0.126696 6.703401,1.026246 2.388115,0.994124 4.897721,1.61939 7.389856,2.289701 0.793609,0.213456 1.583399,0.441252 2.377419,0.653103 1.400025,0.373549 2.827169,0.624398 4.241057,0.93537 0.253217,0.05569 0.283912,-0.110445 0.318725,-0.294354 0.134981,-0.713233 -0.103769,-1.349946 -0.403933,-1.969594 -0.764028,-1.577229 -1.683591,-3.073342 -2.397449,-4.67793 -1.091981,-2.45452 -1.825595,-5.004197 -2.032858,-7.688466 -0.258658,-3.350042 -0.01638,-6.657648 1.008243,-9.87565 2.027496,-6.367606 6.341876,-10.442375 12.571523,-12.581919 1.632429,-0.560653 3.307018,-0.957087 5.01516,-1.18061 0.577078,-0.07551 1.182856,-0.09498 1.746765,-0.179159 1.416254,-0.211422 2.831004,-0.216724 4.249373,-0.241334 0.90143,-0.01563 1.801746,0.04794 2.698857,0.142415 3.457773,0.364172 6.745124,1.258785 9.712852,3.147805 0.865027,0.550609 1.70476,1.141636 2.443872,1.851748 0.430898,0.413983 0.834445,0.864791 1.238628,1.309658 0.354022,0.389656 0.763728,0.745494 1.080508,1.16379 0.841347,1.110963 1.564095,2.292529 2.200069,3.545453 0.664771,1.30965 1.191511,2.657796 1.60149,4.055541 0.242504,0.826799 0.468869,1.662335 0.550202,2.532371 0.05131,0.548834 0.23522,1.079422 0.261322,1.641307 0.01092,0.234937 0.06837,0.471788 0.04248,0.714052 -0.05616,0.525871 0.08799,1.039208 0.09637,1.564463 0.01716,1.076107 -0.09087,2.145518 -0.258465,3.195378 -0.278786,1.746476 -0.618947,3.490381 -1.277397,5.145705 -0.809981,2.036305 -1.883353,3.920599 -3.265511,5.624137 -0.363494,0.448012 -0.715409,0.906237 -1.055303,1.37252 -0.196864,0.270077 -0.444898,0.576776 -0.255058,0.919855 0.174775,0.315868 0.548328,0.302169 0.871655,0.302558 1.110034,0.0013 2.190009,-0.234029 3.272568,-0.440028 3.624459,-0.689693 7.15671,-1.727102 10.663305,-2.860802 3.366963,-1.088558 6.718472,-1.075694 10.038682,0.18707 3.41085,1.29724 5.538,3.743898 6.43563,7.290956 0.38277,1.5126 0.6061,3.041704 0.62535,4.601506 z"
   id="path1"
   style="fill:none;stroke:#ff0000;stroke-width:0.198604;stroke-dasharray:none;stroke-opacity:1" />
	<path
   fill="#FEFEFE"
   d="m 62.081336,52.861098 c -1.742907,0.01315 -3.414856,-0.332104 -5.040842,-0.955651 -2.818942,-1.081035 -4.909598,-3.053102 -6.678606,-5.431271 -0.53776,-0.722953 -1.044194,-1.466907 -1.403457,-2.295205 -0.405087,-0.933944 -0.01796,-1.900036 0.895004,-2.326518 0.826807,-0.386236 1.878824,0.0112 2.308794,0.878182 0.388609,0.78361 0.853393,1.51607 1.392388,2.205252 1.053825,1.347473 2.28354,2.494978 3.810021,3.273642 1.098778,0.5605 2.260053,0.9379 3.505301,1.074332 1.044275,0.114417 2.050499,0.0086 3.080855,-0.146613 1.782539,-0.268634 3.261248,-1.120034 4.654936,-2.187013 0.71649,-0.548535 1.373148,-1.184647 1.875085,-1.914627 0.531754,-0.773332 1.136046,-1.5153 1.460771,-2.433664 0.231757,-0.655453 1.102614,-1.023604 1.812055,-0.877825 0.911579,0.187322 1.41015,0.748096 1.548385,1.693648 0.01891,0.129356 0.0065,0.251991 -0.02902,0.343947 -0.349074,0.903602 -0.796369,1.7762 -1.344213,2.555991 -0.834283,1.187517 -1.822309,2.258128 -2.910237,3.238397 -0.695589,0.62675 -1.499046,1.081627 -2.261168,1.589972 -0.479913,0.320108 -1.071919,0.530669 -1.629644,0.757006 -1.620948,0.657828 -3.307187,0.943112 -5.046411,0.958018 z"
   id="path2"
   style="fill:none;stroke:#ff0000;stroke-width:0.695115;stroke-dasharray:none;stroke-opacity:1" />
	
	
	
	
	
	
	<path
   fill="#C1272E"
   d="m 62.074755,78.041741 c 2.762154,0.0075 4.933391,2.313078 4.977674,5.021162 0.04834,2.956535 -2.208617,5.276754 -4.991697,5.273683 -2.812992,-0.0031 -4.976245,-2.246739 -5.018825,-5.0891 -0.04342,-2.898155 2.26942,-5.234943 5.032848,-5.205745 z"
   id="path9"
   style="fill:none;stroke:#ff0000;stroke-width:0.695115;stroke-dasharray:none;stroke-opacity:1" />
	<path
   fill="#FEFEFE"
   d="m 69.49174,37.168841 c -1.737917,0.08293 -3.147865,-1.54744 -3.329728,-3.065439 -0.08867,-0.740152 -0.02902,-1.416138 0.25312,-2.084464 0.260911,-0.61806 0.676931,-1.109001 1.188791,-1.548729 0.614392,-0.527824 1.321938,-0.633898 2.072821,-0.608859 0.764617,0.0255 1.417069,0.337542 1.978224,0.858906 0.622483,0.578332 0.95742,1.30357 1.126746,2.122895 0.181,0.875872 0.02379,1.745689 -0.364114,2.489895 -0.405298,0.777594 -1.070812,1.399546 -1.962184,1.685533 -0.331958,0.106522 -0.661058,0.206931 -0.963676,0.150262 z"
   id="path10"
   style="fill:none;stroke:#ff0000;stroke-width:0.695115;stroke-dasharray:none;stroke-opacity:1" />
	<path
   fill="#FEFEFE"
   d="m 51.208427,33.816076 c -0.0363,-1.458452 0.408583,-2.545875 1.446382,-3.340217 1.270639,-0.972569 3.042667,-0.806338 4.179948,0.361951 1.54941,1.591649 1.369871,4.44784 -0.448894,5.711966 -1.597592,1.110403 -3.499061,0.865358 -4.676331,-1.083525 -0.337158,-0.558124 -0.556846,-1.145405 -0.501105,-1.650175 z"
   id="path11"
   style="fill:none;stroke:#ff0000;stroke-width:0.695115;stroke-dasharray:none;stroke-opacity:1" />
<text
   xml:space="preserve"
   id="text24"
   style="font-style:normal;font-variant:normal;font-weight:bold;font-stretch:normal;font-size:160px;font-family:'Comic Sans MS';-inkscape-font-specification:'Comic Sans MS Bold';white-space:pre;shape-inside:url(#rect24);display:inline;fill:none;stroke:#ff0000;stroke-width:8.59255;stroke-dasharray:none;stroke-opacity:1"
   transform="matrix(0.08073496,0,0,0.08106024,11.589153,14.530127)" /><text
   xml:space="preserve"
   id="text25"
   style="font-style:normal;font-variant:normal;font-weight:bold;font-stretch:normal;font-size:85.3333px;font-family:'Comic Sans MS';-inkscape-font-specification:'Comic Sans MS Bold';white-space:pre;shape-inside:url(#rect25);display:inline;fill:none;stroke:#ff0000;stroke-width:8.59255;stroke-dasharray:none;stroke-opacity:1"
   transform="matrix(0.08073496,0,0,0.08106024,11.589153,14.530127)" /><text
   xml:space="preserve"
   id="text26"
   style="font-style:normal;font-variant:normal;font-weight:normal;font-stretch:normal;font-size:85.3333px;font-family:Nunito;-inkscape-font-specification:'Nunito, @wght=800';font-variant-ligatures:normal;font-variant-caps:normal;font-variant-numeric:normal;font-variant-east-asian:normal;font-variation-settings:'wght' 800;white-space:pre;shape-inside:url(#rect26);display:inline;fill:none;stroke:#ff0000;stroke-width:8.59255;stroke-dasharray:none;stroke-opacity:1"
   transform="matrix(0.08073496,0,0,0.08106024,11.589153,14.530127)"><tspan
     x="540.37109"
     y="795.29676"
     id="tspan5"><tspan
       dx="0 63.317356 47.530575 41.557434 34.048004 50.261383"
       id="tspan1">Gaston</tspan></tspan></text><text
   xml:space="preserve"
   id="text1"
   style="font-style:italic;font-variant:normal;font-weight:bold;font-stretch:normal;font-size:160px;font-family:Nunito;-inkscape-font-specification:'Nunito Bold Italic';font-variant-ligatures:normal;font-variant-caps:normal;font-variant-numeric:normal;font-variant-east-asian:normal;white-space:pre;shape-inside:url(#rect1);display:inline;fill:none;stroke:#ff0000;stroke-width:8.59255;stroke-dasharray:none"
   transform="matrix(0.08073496,0,0,0.08106024,9.2251397,17.550993)"><tspan
     x="391.30273"
     y="678.96347"
     id="tspan6">Gaston</tspan></text></g>
</svg>
